# xmcd
# 
# Track frame offsets:
#     150
#     24687
#     41645
#     70290
#     87755
#     107755
#     120637
#     137455
#     148642
# 
# Disc length: 2275
# 
# Revision: 1
# Processed by: cddbd v1.5.2PL0 Copyright (c) Steve Scherf et al.
# Submitted via: BonkEnc v1.0.5
# 
DISCID=7908e109
DTITLE=大木トオルブルースバンド - MANHATTAN MIDNIGHT
DYEAR=1979
DGENRE=Blues
TTITLE0=I GOT MY MOJO WORKING
TTITLE1=NEW YORK MAMA
TTITLE2=BIG CITY WOMAN BLUES
TTITLE3=TEN DOLLAR ANGEL
TTITLE4=EVERYNIGHT WOMAN
TTITLE5=YELLOW DADDY
TTITLE6=YOU DON'T HAVE TO GO
TTITLE7=SHAKE MY BLUES AWAY
TTITLE8=I WANNA LOVE YOU
EXTD=YEAR: 1979
EXTT0=
EXTT1=
EXTT2=
EXTT3=
EXTT4=
EXTT5=
EXTT6=
EXTT7=
EXTT8=
PLAYORDER=
